#!OML:ASF H:\ManfredETheater\Project 1\Capture day 1\Session 1\subject.ASF
:FULLY-SPECIFIED
:DEGREES
152
root 3.91202 14.9225 -22.3864 -191.259 -50.0311 -172.689
lowerback 32.1833 0.176616 5.08991
upperback 5.95141 1.32756 6.09001
thorax -10.05 -0.0522891 3.35572
lowerneck -4.66388 -13.0694 -16.5637
upperneck 4.44202 -16.9611 9.22256
head 4.24794 -8.415 4.21633
rclavicle 2.98177e-014 1.1291e-013
rhumerus -34.2483 -18.8882 -66.7559
rradius 46.9478
rwrist -9.70379
rhand -28.8711 -12.9908
rfingers 7.12502
rthumb -2.22726 -42.9589
lclavicle 2.98177e-014 1.1291e-013
lhumerus -13.6353 42.5796 3.75061
lradius 89.7
lwrist 14.2658
lhand -36.6713 8.88301
lfingers 7.12502
lthumb -9.75753 38.637
rfemur -41.9604 -12.782 10.0468
rtibia 68.2352
rfoot -8.04831 -8.51364
rtoes -35.3605
lfemur -45.066 -5.20503 -3.05325
ltibia 81.833
lfoot -24.0479 -19.3484
ltoes 3.25052
153
root 3.91434 14.9953 -22.4997 -190.501 -49.9563 -173.287
lowerback 31.9598 -0.0674567 5.11248
upperback 5.86408 1.02076 5.99196
thorax -10.0431 -0.18497 3.34974
lowerneck -4.80676 -12.9426 -16.456
upperneck 4.43656 -16.7543 8.92876
head 4.20756 -8.31899 4.13044
rclavicle 3.53837e-014 -3.97569e-014
rhumerus -35.1522 -19.2905 -66.8987
rradius 45.1715
rwrist -9.10008
rhand -28.6159 -12.8228
rfingers 7.12502
rthumb -1.98073 -42.7934
lclavicle 3.53837e-014 -3.97569e-014
lhumerus -14.7301 41.2756 4.27541
lradius 90.9226
lwrist 13.6728
lhand -36.5275 8.9004
lfingers 7.12502
lthumb -9.61878 38.6608
rfemur -41.8419 -12.7709 10.1082
rtibia 67.9422
rfoot -8.33272 -8.59126
rtoes -35.158
lfemur -44.6864 -5.09371 -3.12381
ltibia 81.2051
lfoot -23.634 -19.3399
ltoes 2.43044
154
root 3.91418 15.0713 -22.6087 -189.675 -49.8475 -173.995
lowerback 31.7187 -0.297215 5.0659
upperback 5.78033 0.707447 5.87172
thorax -10.0275 -0.317838 3.35781
lowerneck -4.96257 -12.8105 -16.3207
upperneck 4.45436 -16.5413 8.61748
head 4.17277 -8.22015 4.03466
rclavicle -5.1684e-014 -6.99722e-014
rhumerus -36.0245 -19.6712 -66.9494
rradius 43.4095
rwrist -8.40242
rhand -28.3553 -12.6317
rfingers 7.12502
rthumb -1.72911 -42.6044
lclavicle -5.1684e-014 -6.99722e-014
lhumerus -15.8465 39.8706 4.9533
lradius 92.1607
lwrist 13.049
lhand -36.1491 8.84818
lfingers 7.12502
lthumb -9.25363 38.6251
rfemur -41.6844 -12.7445 10.0738
rtibia 67.5834
rfoot -8.57868 -8.61883
rtoes -34.9919
lfemur -44.2268 -4.99479 -3.29807
ltibia 80.5024
lfoot -23.2456 -19.2746
ltoes 1.59467
155
root 3.91132 15.1503 -22.7132 -188.801 -49.6905 -174.783
lowerback 31.4613 -0.509707 4.96489
upperback 5.70066 0.396672 5.73731
thorax -10.0022 -0.447563 3.37736
lowerneck -5.12283 -12.6778 -16.1612
upperneck 4.48085 -16.3285 8.28844
head 4.13892 -8.122 3.9295
rclavicle 2.14687e-014 -1.59028e-015
rhumerus -36.8671 -20.0324 -66.8971
rradius 41.6766
rwrist -7.62021
rhand -28.0986 -12.4448
rfingers 7.12502
rthumb -1.48119 -42.4194
lclavicle 2.14687e-014 -1.59028e-015
lhumerus -16.9701 38.3945 5.79861
lradius 93.3867
lwrist 12.3994
lhand -35.543 8.69465
lfingers 7.12502
lthumb -8.66882 38.4967
rfemur -41.4917 -12.6903 9.96492
rtibia 67.1598
rfoot -8.78508 -8.60395
rtoes -34.8594
lfemur -43.693 -4.89984 -3.5545
ltibia 79.7332
lfoot -22.8688 -19.16
ltoes 0.77505
156
root 3.90554 15.2326 -22.8134 -187.92 -49.4811 -175.609
lowerback 31.1975 -0.709095 4.83871
upperback 5.62388 0.0934542 5.59515
thorax -9.97156 -0.57325 3.39809
lowerneck -5.29995 -12.5441 -15.9824
upperneck 4.52358 -16.1137 7.94261
head 4.11068 -8.02327 3.81517
rclavicle -2.70347e-014 -4.6118e-014
rhumerus -37.6901 -20.3872 -66.7344
rradius 39.9902
rwrist -6.76092
rhand -27.8343 -12.2735
rfingers 7.12502
rthumb -1.22588 -42.2497
lclavicle -2.70347e-014 -4.6118e-014
lhumerus -18.091 36.8742 6.81378
lradius 94.5664
lwrist 11.7354
lhand -34.7591 8.39635
lfingers 7.12502
lthumb -7.91232 38.2283
rfemur -41.2504 -12.6062 9.81067
rtibia 66.6664
rfoot -8.9565 -8.55337
rtoes -34.7508
lfemur -43.0891 -4.81049 -3.86493
ltibia 78.9101
lfoot -22.4952 -18.9917
ltoes -0.0624093
157
root 3.89691 15.3184 -22.9095 -187.061 -49.2266 -176.429
lowerback 30.9298 -0.900528 4.7128
upperback 5.54614 -0.199385 5.45428
thorax -9.93998 -0.694523 3.41527
lowerneck -5.49045 -12.4118 -15.8007
upperneck 4.57997 -15.9001 7.59211
head 4.08949 -7.9255 3.69737
rclavicle -2.94201e-014 -2.54444e-014
rhumerus -38.4983 -20.7388 -66.4526
rradius 38.366
rwrist -5.83352
rhand -27.5649 -12.1382
rfingers 7.12502
rthumb -0.965649 -42.1157
lclavicle -2.94201e-014 -2.54444e-014
lhumerus -19.2112 35.3229 7.98952
lradius 95.6894
lwrist 11.0785
lhand -33.85 7.98292
lfingers 7.12502
lthumb -7.03479 37.846
rfemur -40.9562 -12.4923 9.63916
rtibia 66.098
rfoot -9.09754 -8.48135
rtoes -34.6546
lfemur -42.4358 -4.73154 -4.20125
ltibia 78.0497
lfoot -22.1112 -18.7696
ltoes -0.932949
158
root 3.88592 15.4072 -23.002 -186.246 -48.9325 -177.203
lowerback 30.4776 -1.069 4.55704
upperback 5.8448 -0.491765 5.21095
thorax -10.1103 -0.776977 3.58651
lowerneck -5.69763 -12.2792 -15.608
upperneck 4.64812 -15.6852 7.23625
head 4.07439 -7.82732 3.57499
rclavicle 1.43125e-014 -1.01778e-013
rhumerus -39.2974 -21.0953 -66.0544
rradius 36.8184
rwrist -4.84694
rhand -27.2924 -12.0387
rfingers 7.12502
rthumb -0.702459 -42.0173
lclavicle 1.43125e-014 -1.01778e-013
lhumerus -20.3189 33.7558 9.32511
lradius 96.7399
lwrist 10.4339
lhand -32.8748 7.5087
lfingers 7.12502
lthumb -6.09335 37.4011
rfemur -40.6185 -12.3431 9.48012
rtibia 65.4539
rfoot -9.21004 -8.40045
rtoes -34.5425
lfemur -41.7655 -4.66099 -4.53361
ltibia 77.1735
lfoot -21.695 -18.4947
ltoes -1.83497
159
root 3.87328 15.4986 -23.091 -185.477 -48.6097 -177.908
lowerback 30.1985 -1.25492 4.48482
upperback 5.74481 -0.75671 5.09283
thorax -10.0833 -0.888436 3.58332
lowerneck -5.92354 -12.1487 -15.4193
upperneck 4.72795 -15.4718 6.88938
head 4.06837 -7.72985 3.45387
rclavicle 8.74653e-015 2.06736e-014
rhumerus -40.0955 -21.4712 -65.537
rradius 35.3741
rwrist -3.79984
rhand -27.0192 -11.9782
rfingers 7.12502
rthumb -0.438668 -41.9574
lclavicle 8.74653e-015 2.06736e-014
lhumerus -21.4128 32.1899 10.812
lradius 97.7058
lwrist 9.79668
lhand -31.8801 6.99644
lfingers 7.12502
lthumb -5.133 36.9143
rfemur -40.2555 -12.1552 9.35185
rtibia 64.7383
rfoot -9.29164 -8.32523
rtoes -34.3871
lfemur -41.117 -4.60173 -4.84438
ltibia 76.3049
lfoot -21.224 -18.1615
ltoes -2.76278
